<mxfile host="app.diagrams.net" modified="2024-05-02T00:35:45.824Z" agent="Mozilla/5.0 (X11; Linux x86_64) AppleWebKit/537.36 (KHTML, like Gecko) Chrome/124.0.0.0 Safari/537.36" etag="M5XFrks77MBBOXhX6N1T" version="24.3.1" type="device">
  <diagram name="01-architecture" id="RtIrcNUcOdA28R2Gq13N">
    <mxGraphModel dx="1893" dy="995" grid="1" gridSize="10" guides="1" tooltips="1" connect="1" arrows="1" fold="1" page="1" pageScale="1" pageWidth="1100" pageHeight="850" math="0" shadow="0">
      <root>
        <mxCell id="0" />
        <mxCell id="1" parent="0" />
        <mxCell id="4K7_tw8D8llQMp0xB8h9-66" value="" style="group" vertex="1" connectable="0" parent="1">
          <mxGeometry x="122" y="76" width="840" height="700" as="geometry" />
        </mxCell>
        <mxCell id="4K7_tw8D8llQMp0xB8h9-45" value="&lt;b&gt;CLOUD PROJECT&lt;/b&gt;" style="sketch=0;points=[[0,0,0],[0.25,0,0],[0.5,0,0],[0.75,0,0],[1,0,0],[1,0.25,0],[1,0.5,0],[1,0.75,0],[1,1,0],[0.75,1,0],[0.5,1,0],[0.25,1,0],[0,1,0],[0,0.75,0],[0,0.5,0],[0,0.25,0]];rounded=1;absoluteArcSize=1;arcSize=2;html=1;strokeColor=none;gradientColor=none;shadow=0;dashed=0;fontSize=12;fontColor=#9E9E9E;align=left;verticalAlign=top;spacing=10;spacingTop=-4;whiteSpace=wrap;fillColor=#E1F5FE;" vertex="1" parent="4K7_tw8D8llQMp0xB8h9-66">
          <mxGeometry x="110" width="730" height="600" as="geometry" />
        </mxCell>
        <mxCell id="4K7_tw8D8llQMp0xB8h9-38" value="&lt;b&gt;MASTER VPC: US-WEST&lt;/b&gt;" style="sketch=0;points=[[0,0,0],[0.25,0,0],[0.5,0,0],[0.75,0,0],[1,0,0],[1,0.25,0],[1,0.5,0],[1,0.75,0],[1,1,0],[0.75,1,0],[0.5,1,0],[0.25,1,0],[0,1,0],[0,0.75,0],[0,0.5,0],[0,0.25,0]];rounded=1;absoluteArcSize=1;arcSize=2;html=1;strokeColor=none;gradientColor=none;shadow=0;dashed=0;fontSize=12;fontColor=#9E9E9E;align=left;verticalAlign=top;spacing=10;spacingTop=-4;whiteSpace=wrap;fillColor=#F3E5F5;" vertex="1" parent="4K7_tw8D8llQMp0xB8h9-66">
          <mxGeometry x="151" y="40" width="649" height="530" as="geometry" />
        </mxCell>
        <mxCell id="4K7_tw8D8llQMp0xB8h9-30" value="&lt;b&gt;API user&lt;/b&gt;" style="image;aspect=fixed;perimeter=ellipsePerimeter;html=1;align=center;shadow=0;dashed=0;fontColor=#4277BB;labelBackgroundColor=default;fontSize=12;spacingTop=3;image=img/lib/ibm/users/browser.svg;" vertex="1" parent="4K7_tw8D8llQMp0xB8h9-66">
          <mxGeometry y="290" width="60" height="60" as="geometry" />
        </mxCell>
        <mxCell id="4K7_tw8D8llQMp0xB8h9-50" style="edgeStyle=orthogonalEdgeStyle;rounded=0;orthogonalLoop=1;jettySize=auto;html=1;exitX=0;exitY=0.5;exitDx=0;exitDy=0;startArrow=classic;startFill=1;" edge="1" parent="4K7_tw8D8llQMp0xB8h9-66" source="4K7_tw8D8llQMp0xB8h9-36" target="4K7_tw8D8llQMp0xB8h9-48">
          <mxGeometry relative="1" as="geometry" />
        </mxCell>
        <mxCell id="4K7_tw8D8llQMp0xB8h9-36" value="&lt;b&gt;API developer&lt;/b&gt;" style="image;aspect=fixed;perimeter=ellipsePerimeter;html=1;align=center;shadow=0;dashed=0;fontColor=#4277BB;labelBackgroundColor=default;fontSize=12;spacingTop=3;image=img/lib/ibm/users/browser.svg;" vertex="1" parent="4K7_tw8D8llQMp0xB8h9-66">
          <mxGeometry x="232" y="640" width="60" height="60" as="geometry" />
        </mxCell>
        <mxCell id="4K7_tw8D8llQMp0xB8h9-23" value="&lt;b&gt;SUBNET-A: US-WEST1&lt;/b&gt;" style="sketch=0;points=[[0,0,0],[0.25,0,0],[0.5,0,0],[0.75,0,0],[1,0,0],[1,0.25,0],[1,0.5,0],[1,0.75,0],[1,1,0],[0.75,1,0],[0.5,1,0],[0.25,1,0],[0,1,0],[0,0.75,0],[0,0.5,0],[0,0.25,0]];rounded=1;absoluteArcSize=1;arcSize=2;html=1;strokeColor=none;gradientColor=none;shadow=0;dashed=0;fontSize=12;fontColor=#9E9E9E;align=left;verticalAlign=top;spacing=10;spacingTop=-4;whiteSpace=wrap;fillColor=#F1F8E9;" vertex="1" parent="4K7_tw8D8llQMp0xB8h9-66">
          <mxGeometry x="190" y="100" width="560" height="440" as="geometry" />
        </mxCell>
        <mxCell id="4K7_tw8D8llQMp0xB8h9-49" style="edgeStyle=orthogonalEdgeStyle;rounded=0;orthogonalLoop=1;jettySize=auto;html=1;exitX=0;exitY=0.75;exitDx=0;exitDy=0;startArrow=classic;startFill=1;" edge="1" parent="4K7_tw8D8llQMp0xB8h9-66" source="4K7_tw8D8llQMp0xB8h9-9" target="4K7_tw8D8llQMp0xB8h9-48">
          <mxGeometry relative="1" as="geometry">
            <Array as="points">
              <mxPoint x="90" y="335" />
              <mxPoint x="90" y="670" />
            </Array>
          </mxGeometry>
        </mxCell>
        <mxCell id="4K7_tw8D8llQMp0xB8h9-9" value="" style="strokeColor=#dddddd;shadow=1;strokeWidth=1;rounded=1;absoluteArcSize=1;arcSize=2;" vertex="1" parent="4K7_tw8D8llQMp0xB8h9-66">
          <mxGeometry x="230" y="290" width="130" height="60" as="geometry" />
        </mxCell>
        <mxCell id="4K7_tw8D8llQMp0xB8h9-10" value="&lt;font color=&quot;#000000&quot;&gt;API&lt;/font&gt;&lt;div&gt;&lt;font color=&quot;#000000&quot;&gt;backend&lt;/font&gt;&lt;/div&gt;" style="editableCssRules=.*;html=1;fontColor=#999999;shape=image;verticalLabelPosition=middle;verticalAlign=middle;labelPosition=right;align=left;spacingLeft=20;part=1;points=[];imageAspect=0;image=data:image/svg+xml,PHN2ZyB4bWxucz0iaHR0cDovL3d3dy53My5vcmcvMjAwMC9zdmciIHhtbG5zOnY9Imh0dHBzOi8vdmVjdGEuaW8vbmFubyIgd2lkdGg9IjM2NS40NjQ5OTY3NzA0MjQ5MyIgaGVpZ2h0PSIzNzkuMjIyOTk0NDYzNTc3OTUiIHZpZXdCb3g9IjAgMCA5Ni42OTU5OTkxNDU1MDc4MSAxMDAuMzM1OTk4NTM1MTU2MjUiPiYjeGE7PHN0eWxlIHR5cGU9InRleHQvY3NzIj4mI3hhOwkuc3Qwe2ZpbGw6IzQyODVmNDt9JiN4YTsJLnN0MXtmaWxsOiNhZWNiZmE7fSYjeGE7PC9zdHlsZT4mI3hhOwk8cGF0aCBjbGFzcz0ic3QwIiBkPSJNMjkuNzk0IDEwMC4zMzZMNDYuOTIgNTAuMTY4aDQ5Ljc3NnpNMCA5OS42NzFsMTIuOTc2LTQ5LjUwMkgyOS4yMkwxNi44OTcgOTIuMDU0eiIvPiYjeGE7CTxwYXRoIGNsYXNzPSJzdDEiIGQ9Ik0yOS43OTQgMEw0Ni45MiA1MC4xNjhoNDkuNzc2ek0wIC42NjZsMTIuOTc2IDQ5LjUwMkgyOS4yMkwxNi44OTcgOC4yODN6Ii8+JiN4YTs8L3N2Zz4=;" vertex="1" parent="4K7_tw8D8llQMp0xB8h9-9">
          <mxGeometry width="30" height="30" relative="1" as="geometry">
            <mxPoint x="15" y="15" as="offset" />
          </mxGeometry>
        </mxCell>
        <mxCell id="4K7_tw8D8llQMp0xB8h9-44" value="" style="shape=image;html=1;verticalAlign=top;verticalLabelPosition=bottom;labelBackgroundColor=#ffffff;imageAspect=0;aspect=fixed;image=https://cdn2.iconfinder.com/data/icons/boxicons-logos/24/bxl-spring-boot-128.png" vertex="1" parent="4K7_tw8D8llQMp0xB8h9-9">
          <mxGeometry x="100" y="3" width="28" height="28" as="geometry" />
        </mxCell>
        <mxCell id="4K7_tw8D8llQMp0xB8h9-18" value="&lt;b&gt;US-WEST1-A&lt;/b&gt;" style="sketch=0;points=[[0,0,0],[0.25,0,0],[0.5,0,0],[0.75,0,0],[1,0,0],[1,0.25,0],[1,0.5,0],[1,0.75,0],[1,1,0],[0.75,1,0],[0.5,1,0],[0.25,1,0],[0,1,0],[0,0.75,0],[0,0.5,0],[0,0.25,0]];rounded=1;absoluteArcSize=1;arcSize=2;html=1;strokeColor=none;gradientColor=none;shadow=0;dashed=0;fontSize=12;fontColor=#9E9E9E;align=left;verticalAlign=top;spacing=10;spacingTop=-4;whiteSpace=wrap;fillColor=#EFEBE9;" vertex="1" parent="4K7_tw8D8llQMp0xB8h9-66">
          <mxGeometry x="400" y="140" width="150" height="360" as="geometry" />
        </mxCell>
        <mxCell id="4K7_tw8D8llQMp0xB8h9-19" value="AlloyDB (replica)" style="sketch=0;html=1;verticalAlign=top;labelPosition=center;verticalLabelPosition=bottom;align=center;spacingTop=-6;fontSize=11;fontStyle=1;fontColor=#999999;shape=image;aspect=fixed;imageAspect=0;image=data:image/svg+xml,PHN2ZyB4bWxucz0iaHR0cDovL3d3dy53My5vcmcvMjAwMC9zdmciIGlkPSJzdmc4NzUzMSIgdmVyc2lvbj0iMS4xIiB2aWV3Qm94PSIwIDAgMjg0LjM1MTYyIDMwMi42MTMwNyIgaGVpZ2h0PSIzMDIuNjEzMDdtbSIgd2lkdGg9IjI4NC4zNTE2Mm1tIj4mI3hhOyAgJiN4YTsgIDxkZWZzIGlkPSJkZWZzODc1MjgiLz4mI3hhOyAgPGcgdHJhbnNmb3JtPSJ0cmFuc2xhdGUoMzUuNzQwNDUzLDMuMDI1MTM4NCkiIGlkPSJsYXllcjEiPiYjeGE7ICAgIDxwYXRoIGQ9Ik0gNDAxLjQ3ODUyLC0xMS40MzM1OTQgLTEzMC4xMjEwOSwyNTYuODMwMDggLTU0Ljg4NjcxOSwzMDMuNTM3MTEgNDAxLjUzMTI1LDczLjIwNzAzMSA4MzUuMjEyODksMjkxLjM4NjcyIDkyMy43MTQ4NCwyNTEuMjk0OTIgWiBNIC0xMzUuMDgyMDMsMzQyLjcxNjggdiA1MjcuMzA0NjggbCAyMS40Mjk2OSwxMC4yOTEwMiA1MjQuNzA1MDcsMjUxLjk4ODMgNTI4LjU4MDA4LC0yNjIuNjMyODMgViAzNjguNTY2NDEgbCAtNzUuNTg5ODQsMzQuMjQwMjMgViA4MjIuODIyMjcgTCA0MTAuNDg0MzgsMTA0OC4xNjk5IC01OS40OTAyMzQsODIyLjQ3NDYxIFYgMzg5LjY0NjQ4IFogbSAxNTIuODc4OTA1LDk0LjkxMjExIHYgMzEzLjYyOTQxIGwgNzUuNTkxNzk3LDM3LjEyNjE0IFYgNDg0LjU1ODU5IFogbSA3NTAuNDI5Njg1LDguNTgyMDMgLTc1LjU5MTc5LDM0LjI0MjE4IHYgMzIyLjU1MzYzIGwgNzUuNTkxNzksLTQ3Ljg3MTU1IHoiIHRyYW5zZm9ybT0ic2NhbGUoMC4yNjQ1ODMzMykiIHN0eWxlPSJjb2xvcjojMDAwMDAwO29wYWNpdHk6MTtmaWxsOiM1OTg2ZjI7ZmlsbC1vcGFjaXR5OjE7c3Ryb2tlLXdpZHRoOjMuNzc5NTM7LWlua3NjYXBlLXN0cm9rZTpub25lIiBpZD0icGF0aDExMzIiLz4mI3hhOyAgICA8cGF0aCBpZD0icGF0aDExMzQiIGQ9Im0gMTU2LjQ1ODQsMTY4Ljc2NTA2IC00OS42MTUyNCwyNi43NzIwNSAtNTUuMzkyMzE0LC0yNS4yNjA4OCB2IDIxLjkxNTk2IGwgNTUuMzkyMzE0LDI1Ljc1NTA4IDQ5LjYxNTI0LC0yNy4wMTY3MSB6IiBzdHlsZT0iY29sb3I6IzAwMDAwMDtvcGFjaXR5OjE7ZmlsbDojNzY5ZWY1O2ZpbGwtb3BhY2l0eToxOy1pbmtzY2FwZS1zdHJva2U6bm9uZSIvPiYjeGE7ICAgIDxwYXRoIGQ9Ik0gNTEuNDUwODQ2LDEyMi44MzQyMiAxMDYuODQzMTYsOTMuNTg1NjE0IDE1Ni40NTg0LDEyMi44MzQyMiB2IDIwLjQ3ODYyIEwgMTA2Ljg0MzE2LDE3MC42NDY3MSA1MS40NTA4NDYsMTQzLjMxMjg0IFogTSAxMDUuNDkwMiw0NC4xNTgwMjYgMTAuMjA2MDk1LDk1LjY2MzQxIDI5Ljc4MjE2MSwxMDcuODE2NjcgMTA1LjMzNTY5LDY2Ljk3Njc4OCAxNjcuMTU2MiwxMDEuNDc5MDggMTg5LjgwNzAyLDkxLjIxODIwNCBaIiBzdHlsZT0ib3BhY2l0eToxO2ZpbGw6I2I1Y2JmOTtmaWxsLW9wYWNpdHk6MTtzdHJva2U6bm9uZTtzdHJva2Utd2lkdGg6MjA7c3Ryb2tlLWxpbmVjYXA6YnV0dDtzdHJva2UtbGluZWpvaW46bWl0ZXI7c3Ryb2tlLW1pdGVybGltaXQ6NDtzdHJva2UtZGFzaGFycmF5Om5vbmU7c3Ryb2tlLW9wYWNpdHk6MSIgaWQ9InBhdGgxMTM2Ii8+JiN4YTsgIDwvZz4mI3hhOzwvc3ZnPg==;" vertex="1" parent="4K7_tw8D8llQMp0xB8h9-66">
          <mxGeometry x="450.5" y="299" width="39" height="42" as="geometry" />
        </mxCell>
        <mxCell id="4K7_tw8D8llQMp0xB8h9-20" value="Memorystore" style="sketch=0;html=1;verticalAlign=top;labelPosition=center;verticalLabelPosition=bottom;align=center;spacingTop=-6;fontSize=11;fontStyle=1;fontColor=#999999;shape=image;aspect=fixed;imageAspect=0;image=data:image/svg+xml,PHN2ZyB4bWxucz0iaHR0cDovL3d3dy53My5vcmcvMjAwMC9zdmciIHhtbG5zOnY9Imh0dHBzOi8vdmVjdGEuaW8vbmFubyIgd2lkdGg9IjIwIiBoZWlnaHQ9IjIwIiB2aWV3Qm94PSIwIDAgMjAgMjAiPiYjeGE7CTxzdHlsZSB0eXBlPSJ0ZXh0L2NzcyI+JiN4YTsJLnN0MHtmaWxsOiM0Mjg1ZjQ7fSYjeGE7CS5zdDF7ZmlsbDojNjY5ZGY2O30mI3hhOwkuc3Qye2ZpbGw6I2FlY2JmYTt9JiN4YTsJPC9zdHlsZT4mI3hhOwk8cGF0aCBjbGFzcz0ic3QxIiBkPSJNMCAxLjk0aDMuMzN2Mi41OEgwem0wIDQuNTFoMy4zM3YyLjU4SDB6bTAgNC41MmgzLjMzdjIuNThIMHptMCA0LjUxaDMuMzN2Mi41OEgwek0xNi42NyAxLjk0SDIwdjIuNThoLTMuMzN6bTAgNC41MUgyMHYyLjU4aC0zLjMzem0wIDQuNTJIMjB2Mi41OGgtMy4zM3ptMCA0LjUxSDIwdjIuNThoLTMuMzN6Ii8+JiN4YTsJPHBhdGggY2xhc3M9InN0MCIgZD0iTTE2LjY3IDEuOTRsMi42NiAyLjU4aC0yLjY2em0wIDQuNTFsMi42NiAyLjU4aC0yLjY2em0wIDQuNTJsMi42NiAyLjU4aC0yLjY2em0wIDQuNTFsMi42NiAyLjU5aC0yLjY2eiIgZmlsbC1ydWxlPSJldmVub2RkIi8+JiN4YTsJPHBhdGggY2xhc3M9InN0MiIgZD0iTTMuMzMgMjBoMTMuMzRWMEgzLjMzem02LTlINmw0LjY3LTcuNzRWOUgxNGwtNC42NyA3Ljc0eiIgZmlsbC1ydWxlPSJldmVub2RkIi8+JiN4YTsJPHBhdGggY2xhc3M9InN0MSIgZD0iTTE0IDkuMDNoLTMuMzNWMGg2djIwSDkuMzN2LTMuMjN6IiBmaWxsLXJ1bGU9ImV2ZW5vZGQiLz4mI3hhOzwvc3ZnPg==;" vertex="1" parent="4K7_tw8D8llQMp0xB8h9-66">
          <mxGeometry x="454" y="190" width="42" height="42" as="geometry" />
        </mxCell>
        <mxCell id="4K7_tw8D8llQMp0xB8h9-2" value="&lt;b&gt;US-WEST1-B&lt;/b&gt;" style="sketch=0;points=[[0,0,0],[0.25,0,0],[0.5,0,0],[0.75,0,0],[1,0,0],[1,0.25,0],[1,0.5,0],[1,0.75,0],[1,1,0],[0.75,1,0],[0.5,1,0],[0.25,1,0],[0,1,0],[0,0.75,0],[0,0.5,0],[0,0.25,0]];rounded=1;absoluteArcSize=1;arcSize=2;html=1;strokeColor=none;gradientColor=none;shadow=0;dashed=0;fontSize=12;fontColor=#9E9E9E;align=left;verticalAlign=top;spacing=10;spacingTop=-4;whiteSpace=wrap;fillColor=#EFEBE9;" vertex="1" parent="4K7_tw8D8llQMp0xB8h9-66">
          <mxGeometry x="560" y="140" width="150" height="360" as="geometry" />
        </mxCell>
        <mxCell id="4K7_tw8D8llQMp0xB8h9-5" value="AlloyDB (slave)" style="sketch=0;html=1;verticalAlign=top;labelPosition=center;verticalLabelPosition=bottom;align=center;spacingTop=-6;fontSize=11;fontStyle=1;fontColor=#999999;shape=image;aspect=fixed;imageAspect=0;image=data:image/svg+xml,PHN2ZyB4bWxucz0iaHR0cDovL3d3dy53My5vcmcvMjAwMC9zdmciIGlkPSJzdmc4NzUzMSIgdmVyc2lvbj0iMS4xIiB2aWV3Qm94PSIwIDAgMjg0LjM1MTYyIDMwMi42MTMwNyIgaGVpZ2h0PSIzMDIuNjEzMDdtbSIgd2lkdGg9IjI4NC4zNTE2Mm1tIj4mI3hhOyAgJiN4YTsgIDxkZWZzIGlkPSJkZWZzODc1MjgiLz4mI3hhOyAgPGcgdHJhbnNmb3JtPSJ0cmFuc2xhdGUoMzUuNzQwNDUzLDMuMDI1MTM4NCkiIGlkPSJsYXllcjEiPiYjeGE7ICAgIDxwYXRoIGQ9Ik0gNDAxLjQ3ODUyLC0xMS40MzM1OTQgLTEzMC4xMjEwOSwyNTYuODMwMDggLTU0Ljg4NjcxOSwzMDMuNTM3MTEgNDAxLjUzMTI1LDczLjIwNzAzMSA4MzUuMjEyODksMjkxLjM4NjcyIDkyMy43MTQ4NCwyNTEuMjk0OTIgWiBNIC0xMzUuMDgyMDMsMzQyLjcxNjggdiA1MjcuMzA0NjggbCAyMS40Mjk2OSwxMC4yOTEwMiA1MjQuNzA1MDcsMjUxLjk4ODMgNTI4LjU4MDA4LC0yNjIuNjMyODMgViAzNjguNTY2NDEgbCAtNzUuNTg5ODQsMzQuMjQwMjMgViA4MjIuODIyMjcgTCA0MTAuNDg0MzgsMTA0OC4xNjk5IC01OS40OTAyMzQsODIyLjQ3NDYxIFYgMzg5LjY0NjQ4IFogbSAxNTIuODc4OTA1LDk0LjkxMjExIHYgMzEzLjYyOTQxIGwgNzUuNTkxNzk3LDM3LjEyNjE0IFYgNDg0LjU1ODU5IFogbSA3NTAuNDI5Njg1LDguNTgyMDMgLTc1LjU5MTc5LDM0LjI0MjE4IHYgMzIyLjU1MzYzIGwgNzUuNTkxNzksLTQ3Ljg3MTU1IHoiIHRyYW5zZm9ybT0ic2NhbGUoMC4yNjQ1ODMzMykiIHN0eWxlPSJjb2xvcjojMDAwMDAwO29wYWNpdHk6MTtmaWxsOiM1OTg2ZjI7ZmlsbC1vcGFjaXR5OjE7c3Ryb2tlLXdpZHRoOjMuNzc5NTM7LWlua3NjYXBlLXN0cm9rZTpub25lIiBpZD0icGF0aDExMzIiLz4mI3hhOyAgICA8cGF0aCBpZD0icGF0aDExMzQiIGQ9Im0gMTU2LjQ1ODQsMTY4Ljc2NTA2IC00OS42MTUyNCwyNi43NzIwNSAtNTUuMzkyMzE0LC0yNS4yNjA4OCB2IDIxLjkxNTk2IGwgNTUuMzkyMzE0LDI1Ljc1NTA4IDQ5LjYxNTI0LC0yNy4wMTY3MSB6IiBzdHlsZT0iY29sb3I6IzAwMDAwMDtvcGFjaXR5OjE7ZmlsbDojNzY5ZWY1O2ZpbGwtb3BhY2l0eToxOy1pbmtzY2FwZS1zdHJva2U6bm9uZSIvPiYjeGE7ICAgIDxwYXRoIGQ9Ik0gNTEuNDUwODQ2LDEyMi44MzQyMiAxMDYuODQzMTYsOTMuNTg1NjE0IDE1Ni40NTg0LDEyMi44MzQyMiB2IDIwLjQ3ODYyIEwgMTA2Ljg0MzE2LDE3MC42NDY3MSA1MS40NTA4NDYsMTQzLjMxMjg0IFogTSAxMDUuNDkwMiw0NC4xNTgwMjYgMTAuMjA2MDk1LDk1LjY2MzQxIDI5Ljc4MjE2MSwxMDcuODE2NjcgMTA1LjMzNTY5LDY2Ljk3Njc4OCAxNjcuMTU2MiwxMDEuNDc5MDggMTg5LjgwNzAyLDkxLjIxODIwNCBaIiBzdHlsZT0ib3BhY2l0eToxO2ZpbGw6I2I1Y2JmOTtmaWxsLW9wYWNpdHk6MTtzdHJva2U6bm9uZTtzdHJva2Utd2lkdGg6MjA7c3Ryb2tlLWxpbmVjYXA6YnV0dDtzdHJva2UtbGluZWpvaW46bWl0ZXI7c3Ryb2tlLW1pdGVybGltaXQ6NDtzdHJva2UtZGFzaGFycmF5Om5vbmU7c3Ryb2tlLW9wYWNpdHk6MSIgaWQ9InBhdGgxMTM2Ii8+JiN4YTsgIDwvZz4mI3hhOzwvc3ZnPg==;" vertex="1" parent="4K7_tw8D8llQMp0xB8h9-66">
          <mxGeometry x="615.5" y="402" width="39" height="42" as="geometry" />
        </mxCell>
        <mxCell id="4K7_tw8D8llQMp0xB8h9-34" value="Artifact Registry" style="editableCssRules=.*;html=1;shape=image;verticalLabelPosition=bottom;labelBackgroundColor=#ffffff;verticalAlign=top;aspect=fixed;imageAspect=0;image=data:image/svg+xml,PHN2ZyB4bWxucz0iaHR0cDovL3d3dy53My5vcmcvMjAwMC9zdmciIHhtbG5zOnY9Imh0dHBzOi8vdmVjdGEuaW8vbmFubyIgd2lkdGg9IjIxLjk5OTAwMDU0OTMxNjQwNiIgaGVpZ2h0PSIyMC4zOTM5OTkwOTk3MzE0NDUiIHZpZXdCb3g9IjAgMCAyMS45OTkwMDA1NDkzMTY0MDYgMjAuMzkzOTk5MDk5NzMxNDQ1Ij4mI3hhOwk8c3R5bGUgdHlwZT0idGV4dC9jc3MiPiYjeGE7CS5zdDB7ZmlsbDojNDI4NWY0O2ZpbGwtcnVsZTpldmVub2RkfSYjeGE7CTwvc3R5bGU+JiN4YTsJPHBhdGggY2xhc3M9InN0MCIgZD0iTTUgMHYyLjQ1OEwxLjk5OSA0LjE5N3YxMi4wMUw1IDE3LjkzOHYyLjQ1NmwtNS0yLjg4N1YyLjg4NnptMTIgMGw0Ljk5OSAyLjg4NnYxNC42MjFMMTcgMjAuMzk0di0yLjQ1NmwzLTEuNzMxVjQuMTk3bC0zLTEuNzM5em0tNi4wMTYgNi42NzNsMi45NDctMS42NDYtMi45NDctMS42NDYtMi45NDcgMS42NDZ6bTMuMjY4LTEuMDk2bC0yLjg3MSAxLjY3OHYzLjI4N2wyLjg3MS0xLjY3NnpNNy43NzMgOC44NjZsMi44NzEgMS42NzRWNy4yNTZMNy43NzMgNS41Nzd6bS0uMjEyIDMuODc4bDIuODItMS42NDYtMi44Mi0xLjY0Ni0yLjgyIDEuNjQ2em0zLjEzMi0xLjA5OGwtMi44NzEgMS42Nzh2My4yODdsMi44NzEtMS42NzZ6bS02LjI2NCAzLjI4OUw3LjMgMTYuNjA5di0zLjI4NWwtMi44NzEtMS42Nzl6bTEwLjAyOS0yLjE5MWwyLjgyLTEuNjQ2LTIuODItMS42NDYtMi44MiAxLjY0NnptMy4xMzItMS4wOThsLTIuODcxIDEuNjc4djMuMjg3bDIuODcxLTEuNjc2em0tNi4yNjQgMy4yODlsMi44NzEgMS42NzR2LTMuMjg1bC0yLjg3MS0xLjY3OXoiLz4mI3hhOzwvc3ZnPg==;" vertex="1" parent="4K7_tw8D8llQMp0xB8h9-66">
          <mxGeometry x="242" y="444" width="40" height="36" as="geometry" />
        </mxCell>
        <mxCell id="4K7_tw8D8llQMp0xB8h9-35" style="edgeStyle=orthogonalEdgeStyle;rounded=0;orthogonalLoop=1;jettySize=auto;html=1;exitX=0.25;exitY=1;exitDx=0;exitDy=0;entryX=0.5;entryY=0;entryDx=0;entryDy=0;startArrow=classic;startFill=1;" edge="1" parent="4K7_tw8D8llQMp0xB8h9-66" source="4K7_tw8D8llQMp0xB8h9-9" target="4K7_tw8D8llQMp0xB8h9-34">
          <mxGeometry relative="1" as="geometry" />
        </mxCell>
        <mxCell id="4K7_tw8D8llQMp0xB8h9-55" style="edgeStyle=orthogonalEdgeStyle;rounded=0;orthogonalLoop=1;jettySize=auto;html=1;exitX=1;exitY=0.5;exitDx=0;exitDy=0;entryX=0;entryY=0.5;entryDx=0;entryDy=0;startArrow=classic;startFill=1;" edge="1" parent="4K7_tw8D8llQMp0xB8h9-66" source="4K7_tw8D8llQMp0xB8h9-21" target="4K7_tw8D8llQMp0xB8h9-5">
          <mxGeometry relative="1" as="geometry" />
        </mxCell>
        <mxCell id="4K7_tw8D8llQMp0xB8h9-56" style="edgeStyle=orthogonalEdgeStyle;rounded=0;orthogonalLoop=1;jettySize=auto;html=1;exitX=0.5;exitY=0;exitDx=0;exitDy=0;entryX=0.5;entryY=1;entryDx=0;entryDy=0;startArrow=classic;startFill=1;" edge="1" parent="4K7_tw8D8llQMp0xB8h9-66" source="4K7_tw8D8llQMp0xB8h9-21" target="4K7_tw8D8llQMp0xB8h9-19">
          <mxGeometry relative="1" as="geometry" />
        </mxCell>
        <mxCell id="4K7_tw8D8llQMp0xB8h9-21" value="AlloyDB (master)" style="sketch=0;html=1;verticalAlign=top;labelPosition=center;verticalLabelPosition=bottom;align=center;spacingTop=-6;fontSize=11;fontStyle=1;fontColor=#999999;shape=image;aspect=fixed;imageAspect=0;image=data:image/svg+xml,PHN2ZyB4bWxucz0iaHR0cDovL3d3dy53My5vcmcvMjAwMC9zdmciIGlkPSJzdmc4NzUzMSIgdmVyc2lvbj0iMS4xIiB2aWV3Qm94PSIwIDAgMjg0LjM1MTYyIDMwMi42MTMwNyIgaGVpZ2h0PSIzMDIuNjEzMDdtbSIgd2lkdGg9IjI4NC4zNTE2Mm1tIj4mI3hhOyAgJiN4YTsgIDxkZWZzIGlkPSJkZWZzODc1MjgiLz4mI3hhOyAgPGcgdHJhbnNmb3JtPSJ0cmFuc2xhdGUoMzUuNzQwNDUzLDMuMDI1MTM4NCkiIGlkPSJsYXllcjEiPiYjeGE7ICAgIDxwYXRoIGQ9Ik0gNDAxLjQ3ODUyLC0xMS40MzM1OTQgLTEzMC4xMjEwOSwyNTYuODMwMDggLTU0Ljg4NjcxOSwzMDMuNTM3MTEgNDAxLjUzMTI1LDczLjIwNzAzMSA4MzUuMjEyODksMjkxLjM4NjcyIDkyMy43MTQ4NCwyNTEuMjk0OTIgWiBNIC0xMzUuMDgyMDMsMzQyLjcxNjggdiA1MjcuMzA0NjggbCAyMS40Mjk2OSwxMC4yOTEwMiA1MjQuNzA1MDcsMjUxLjk4ODMgNTI4LjU4MDA4LC0yNjIuNjMyODMgViAzNjguNTY2NDEgbCAtNzUuNTg5ODQsMzQuMjQwMjMgViA4MjIuODIyMjcgTCA0MTAuNDg0MzgsMTA0OC4xNjk5IC01OS40OTAyMzQsODIyLjQ3NDYxIFYgMzg5LjY0NjQ4IFogbSAxNTIuODc4OTA1LDk0LjkxMjExIHYgMzEzLjYyOTQxIGwgNzUuNTkxNzk3LDM3LjEyNjE0IFYgNDg0LjU1ODU5IFogbSA3NTAuNDI5Njg1LDguNTgyMDMgLTc1LjU5MTc5LDM0LjI0MjE4IHYgMzIyLjU1MzYzIGwgNzUuNTkxNzksLTQ3Ljg3MTU1IHoiIHRyYW5zZm9ybT0ic2NhbGUoMC4yNjQ1ODMzMykiIHN0eWxlPSJjb2xvcjojMDAwMDAwO29wYWNpdHk6MTtmaWxsOiM1OTg2ZjI7ZmlsbC1vcGFjaXR5OjE7c3Ryb2tlLXdpZHRoOjMuNzc5NTM7LWlua3NjYXBlLXN0cm9rZTpub25lIiBpZD0icGF0aDExMzIiLz4mI3hhOyAgICA8cGF0aCBpZD0icGF0aDExMzQiIGQ9Im0gMTU2LjQ1ODQsMTY4Ljc2NTA2IC00OS42MTUyNCwyNi43NzIwNSAtNTUuMzkyMzE0LC0yNS4yNjA4OCB2IDIxLjkxNTk2IGwgNTUuMzkyMzE0LDI1Ljc1NTA4IDQ5LjYxNTI0LC0yNy4wMTY3MSB6IiBzdHlsZT0iY29sb3I6IzAwMDAwMDtvcGFjaXR5OjE7ZmlsbDojNzY5ZWY1O2ZpbGwtb3BhY2l0eToxOy1pbmtzY2FwZS1zdHJva2U6bm9uZSIvPiYjeGE7ICAgIDxwYXRoIGQ9Ik0gNTEuNDUwODQ2LDEyMi44MzQyMiAxMDYuODQzMTYsOTMuNTg1NjE0IDE1Ni40NTg0LDEyMi44MzQyMiB2IDIwLjQ3ODYyIEwgMTA2Ljg0MzE2LDE3MC42NDY3MSA1MS40NTA4NDYsMTQzLjMxMjg0IFogTSAxMDUuNDkwMiw0NC4xNTgwMjYgMTAuMjA2MDk1LDk1LjY2MzQxIDI5Ljc4MjE2MSwxMDcuODE2NjcgMTA1LjMzNTY5LDY2Ljk3Njc4OCAxNjcuMTU2MiwxMDEuNDc5MDggMTg5LjgwNzAyLDkxLjIxODIwNCBaIiBzdHlsZT0ib3BhY2l0eToxO2ZpbGw6I2I1Y2JmOTtmaWxsLW9wYWNpdHk6MTtzdHJva2U6bm9uZTtzdHJva2Utd2lkdGg6MjA7c3Ryb2tlLWxpbmVjYXA6YnV0dDtzdHJva2UtbGluZWpvaW46bWl0ZXI7c3Ryb2tlLW1pdGVybGltaXQ6NDtzdHJva2UtZGFzaGFycmF5Om5vbmU7c3Ryb2tlLW9wYWNpdHk6MSIgaWQ9InBhdGgxMTM2Ii8+JiN4YTsgIDwvZz4mI3hhOzwvc3ZnPg==;" vertex="1" parent="4K7_tw8D8llQMp0xB8h9-66">
          <mxGeometry x="450.5" y="402" width="39" height="42" as="geometry" />
        </mxCell>
        <mxCell id="4K7_tw8D8llQMp0xB8h9-31" style="edgeStyle=orthogonalEdgeStyle;rounded=0;orthogonalLoop=1;jettySize=auto;html=1;exitX=1;exitY=0.5;exitDx=0;exitDy=0;entryX=0;entryY=0.5;entryDx=0;entryDy=0;startArrow=classic;startFill=1;" edge="1" parent="4K7_tw8D8llQMp0xB8h9-66" source="4K7_tw8D8llQMp0xB8h9-30" target="4K7_tw8D8llQMp0xB8h9-9">
          <mxGeometry relative="1" as="geometry" />
        </mxCell>
        <mxCell id="4K7_tw8D8llQMp0xB8h9-37" style="edgeStyle=orthogonalEdgeStyle;rounded=0;orthogonalLoop=1;jettySize=auto;html=1;exitX=0.5;exitY=0;exitDx=0;exitDy=0;entryX=0.5;entryY=1;entryDx=0;entryDy=0;startArrow=classic;startFill=1;" edge="1" parent="4K7_tw8D8llQMp0xB8h9-66" source="4K7_tw8D8llQMp0xB8h9-36" target="4K7_tw8D8llQMp0xB8h9-34">
          <mxGeometry relative="1" as="geometry" />
        </mxCell>
        <mxCell id="4K7_tw8D8llQMp0xB8h9-48" value="&lt;b&gt;REPO&lt;/b&gt;" style="dashed=0;outlineConnect=0;html=1;align=center;labelPosition=center;verticalLabelPosition=bottom;verticalAlign=top;shape=mxgraph.weblogos.github" vertex="1" parent="4K7_tw8D8llQMp0xB8h9-66">
          <mxGeometry x="110" y="642.5" width="55" height="55" as="geometry" />
        </mxCell>
        <mxCell id="4K7_tw8D8llQMp0xB8h9-53" style="edgeStyle=orthogonalEdgeStyle;rounded=0;orthogonalLoop=1;jettySize=auto;html=1;exitX=0.75;exitY=1;exitDx=0;exitDy=0;entryX=0;entryY=0.5;entryDx=0;entryDy=0;startArrow=classic;startFill=1;" edge="1" parent="4K7_tw8D8llQMp0xB8h9-66" source="4K7_tw8D8llQMp0xB8h9-9" target="4K7_tw8D8llQMp0xB8h9-21">
          <mxGeometry relative="1" as="geometry" />
        </mxCell>
        <mxCell id="4K7_tw8D8llQMp0xB8h9-57" style="edgeStyle=orthogonalEdgeStyle;rounded=0;orthogonalLoop=1;jettySize=auto;html=1;exitX=0.75;exitY=0;exitDx=0;exitDy=0;entryX=0;entryY=0.5;entryDx=0;entryDy=0;startArrow=classic;startFill=1;" edge="1" parent="4K7_tw8D8llQMp0xB8h9-66" source="4K7_tw8D8llQMp0xB8h9-9" target="4K7_tw8D8llQMp0xB8h9-20">
          <mxGeometry relative="1" as="geometry" />
        </mxCell>
        <mxCell id="4K7_tw8D8llQMp0xB8h9-58" value="Memorystore" style="sketch=0;html=1;verticalAlign=top;labelPosition=center;verticalLabelPosition=bottom;align=center;spacingTop=-6;fontSize=11;fontStyle=1;fontColor=#999999;shape=image;aspect=fixed;imageAspect=0;image=data:image/svg+xml,PHN2ZyB4bWxucz0iaHR0cDovL3d3dy53My5vcmcvMjAwMC9zdmciIHhtbG5zOnY9Imh0dHBzOi8vdmVjdGEuaW8vbmFubyIgd2lkdGg9IjIwIiBoZWlnaHQ9IjIwIiB2aWV3Qm94PSIwIDAgMjAgMjAiPiYjeGE7CTxzdHlsZSB0eXBlPSJ0ZXh0L2NzcyI+JiN4YTsJLnN0MHtmaWxsOiM0Mjg1ZjQ7fSYjeGE7CS5zdDF7ZmlsbDojNjY5ZGY2O30mI3hhOwkuc3Qye2ZpbGw6I2FlY2JmYTt9JiN4YTsJPC9zdHlsZT4mI3hhOwk8cGF0aCBjbGFzcz0ic3QxIiBkPSJNMCAxLjk0aDMuMzN2Mi41OEgwem0wIDQuNTFoMy4zM3YyLjU4SDB6bTAgNC41MmgzLjMzdjIuNThIMHptMCA0LjUxaDMuMzN2Mi41OEgwek0xNi42NyAxLjk0SDIwdjIuNThoLTMuMzN6bTAgNC41MUgyMHYyLjU4aC0zLjMzem0wIDQuNTJIMjB2Mi41OGgtMy4zM3ptMCA0LjUxSDIwdjIuNThoLTMuMzN6Ii8+JiN4YTsJPHBhdGggY2xhc3M9InN0MCIgZD0iTTE2LjY3IDEuOTRsMi42NiAyLjU4aC0yLjY2em0wIDQuNTFsMi42NiAyLjU4aC0yLjY2em0wIDQuNTJsMi42NiAyLjU4aC0yLjY2em0wIDQuNTFsMi42NiAyLjU5aC0yLjY2eiIgZmlsbC1ydWxlPSJldmVub2RkIi8+JiN4YTsJPHBhdGggY2xhc3M9InN0MiIgZD0iTTMuMzMgMjBoMTMuMzRWMEgzLjMzem02LTlINmw0LjY3LTcuNzRWOUgxNGwtNC42NyA3Ljc0eiIgZmlsbC1ydWxlPSJldmVub2RkIi8+JiN4YTsJPHBhdGggY2xhc3M9InN0MSIgZD0iTTE0IDkuMDNoLTMuMzNWMGg2djIwSDkuMzN2LTMuMjN6IiBmaWxsLXJ1bGU9ImV2ZW5vZGQiLz4mI3hhOzwvc3ZnPg==;" vertex="1" parent="4K7_tw8D8llQMp0xB8h9-66">
          <mxGeometry x="612.5" y="190" width="42" height="42" as="geometry" />
        </mxCell>
        <mxCell id="4K7_tw8D8llQMp0xB8h9-59" style="edgeStyle=orthogonalEdgeStyle;rounded=0;orthogonalLoop=1;jettySize=auto;html=1;exitX=1;exitY=0.5;exitDx=0;exitDy=0;entryX=0;entryY=0.5;entryDx=0;entryDy=0;startArrow=classic;startFill=1;" edge="1" parent="4K7_tw8D8llQMp0xB8h9-66" source="4K7_tw8D8llQMp0xB8h9-20" target="4K7_tw8D8llQMp0xB8h9-58">
          <mxGeometry relative="1" as="geometry" />
        </mxCell>
        <mxCell id="4K7_tw8D8llQMp0xB8h9-61" style="edgeStyle=orthogonalEdgeStyle;rounded=0;orthogonalLoop=1;jettySize=auto;html=1;exitX=1;exitY=0.5;exitDx=0;exitDy=0;entryX=0;entryY=0.5;entryDx=0;entryDy=0;startArrow=classic;startFill=1;" edge="1" parent="4K7_tw8D8llQMp0xB8h9-66" source="4K7_tw8D8llQMp0xB8h9-9" target="4K7_tw8D8llQMp0xB8h9-19">
          <mxGeometry relative="1" as="geometry" />
        </mxCell>
        <mxCell id="4K7_tw8D8llQMp0xB8h9-63" value="" style="strokeColor=#dddddd;shadow=1;strokeWidth=1;rounded=1;absoluteArcSize=1;arcSize=2;" vertex="1" parent="4K7_tw8D8llQMp0xB8h9-66">
          <mxGeometry x="151" y="560" width="200" height="50" as="geometry" />
        </mxCell>
        <mxCell id="4K7_tw8D8llQMp0xB8h9-64" value="&lt;font color=&quot;#000000&quot;&gt;Identity Aware Proxy&lt;/font&gt;" style="editableCssRules=.*;html=1;fontColor=#999999;shape=image;verticalLabelPosition=middle;verticalAlign=middle;labelPosition=right;align=left;spacingLeft=20;part=1;points=[];imageAspect=0;image=data:image/svg+xml,PHN2ZyB4bWxucz0iaHR0cDovL3d3dy53My5vcmcvMjAwMC9zdmciIHhtbG5zOnY9Imh0dHBzOi8vdmVjdGEuaW8vbmFubyIgd2lkdGg9IjE5Ljk5IiBoZWlnaHQ9IjEwLjQxIiB2aWV3Qm94PSIwIDAgMTkuOTkgMTAuNDEiPiYjeGE7CTxwYXRoIGQ9Ik05Ljg0LjIxYTUuMSA1LjEgMCAxIDAgNS4xIDUuMWgwYTUuMSA1LjEgMCAwIDAtNS4xLTUuMXptMCA5LjA4YTQgNCAwIDEgMSA0LTRoMGE0IDQgMCAwIDEtNCA0LjAxeiIgZmlsbD0iIzQyODVmNCIvPiYjeGE7CTxwYXRoIGQ9Ik0xMS43NiA1LjkyYTIuMDkgMi4wOSAwIDAgMC0uMjgtLjIyIDMuMTEgMy4xMSAwIDAgMC0yLjYxLS4yOCAyLjMxIDIuMzEgMCAwIDAtLjg5LjQ3Ljg2Ljg2IDAgMCAwLS4zNy42NXYxaDQuNDd2LS44MmExIDEgMCAwIDAtLjMyLS44ek05Ljg0IDQuNzRhMS4xNiAxLjE2IDAgMSAwLTEuMTctMS4xNWgwYTEuMTcgMS4xNyAwIDAgMCAxLjE3IDEuMTV6IiBmaWxsPSIjNjY5ZGY2Ii8+JiN4YTsJPHBhdGggZD0iTTE2LjI5IDUuNmgyLjIxbC0uNzcuNzhoMS4wNGwxLjIyLTEuMjMtMS4yMi0xLjIyaC0xLjA0bC43Ny43N2gtMi4yMXoiIGZpbGw9IiNhZWNiZmEiLz4mI3hhOwk8cGF0aCBkPSJNMTcuODggMS43M1YwaC0xLjczbC0uNzMuNzRoMS4wOWwtLjk4Ljk3LjY0LjY0Ljk4LS45N3YxLjA5em0tMi40NiA3Ljk1bC43My43M2gxLjczVjguNjhsLS43My0uNzN2MS4wOWwtLjk4LS45Ny0uNjQuNjMuOTguOTh6TTEuMzQgMy44NkExLjM1IDEuMzUgMCAxIDAgMi43IDUuMjFhMS4zNSAxLjM1IDAgMCAwLTEuMzYtMS4zNXptMCAyLjFhLjc2Ljc2IDAgMSAxIC43Ni0uNzVoMGEuNzYuNzYgMCAwIDEtLjc2Ljc1eiIgZmlsbD0iIzY2OWRmNiIvPiYjeGE7PC9zdmc+;" vertex="1" parent="4K7_tw8D8llQMp0xB8h9-63">
          <mxGeometry width="30" height="15" relative="1" as="geometry">
            <mxPoint x="15" y="22" as="offset" />
          </mxGeometry>
        </mxCell>
      </root>
    </mxGraphModel>
  </diagram>
</mxfile>
